<?xml version="1.0" encoding="UTF-8" standalone="no"?>
<!DOCTYPE svg PUBLIC "-//W3C//DTD SVG 1.1//EN" "http://www.w3.org/Graphics/SVG/1.1/DTD/svg11.dtd">
<svg width="100%" height="100%" viewBox="0 0 3544 3544" version="1.1" xmlns="http://www.w3.org/2000/svg" xmlns:xlink="http://www.w3.org/1999/xlink" xml:space="preserve" xmlns:serif="http://www.serif.com/" style="fill-rule:evenodd;clip-rule:evenodd;stroke-linecap:round;stroke-linejoin:round;stroke-miterlimit:1.5;">
    <g transform="matrix(1.1918,0,0,1.1918,-339.798,-339.798)">
        <circle cx="1771.65" cy="1771.65" r="878.345" style="fill:white;fill-opacity:0;stroke:black;stroke-width:40.74px;"/>
    </g>
    <g>
        <g transform="matrix(1.1918,0,0,1.1918,-339.798,-339.798)">
            <path d="M893.309,893.309L893.309,2650" style="fill:none;stroke:black;stroke-width:40.74px;"/>
        </g>
        <g transform="matrix(1.1918,0,0,1.1918,-339.798,-339.798)">
            <path d="M1046.57,893.309L1046.57,2650" style="fill:none;stroke:black;stroke-width:40.74px;"/>
        </g>
        <g transform="matrix(1.1918,0,0,1.1918,-339.798,-339.798)">
            <path d="M1200.54,893.309L1200.54,2650" style="fill:none;stroke:black;stroke-width:40.74px;"/>
        </g>
        <g transform="matrix(1.1918,0,0,1.1918,-339.798,-339.798)">
            <path d="M1354.52,893.309L1354.52,2650" style="fill:none;stroke:black;stroke-width:40.74px;"/>
        </g>
    </g>
    <g>
        <g transform="matrix(1.1918,0,0,1.1918,-339.798,-339.798)">
            <path d="M2241.26,893.309L893.309,2650" style="fill:none;stroke:black;stroke-width:40.74px;"/>
        </g>
        <g transform="matrix(1.1918,0,0,1.1918,-339.798,-339.798)">
            <path d="M2394.52,893.309L1046.57,2650" style="fill:none;stroke:black;stroke-width:40.74px;"/>
        </g>
        <g transform="matrix(1.1918,0,0,1.1918,-339.798,-339.798)">
            <path d="M2548.5,893.309L1200.54,2650" style="fill:none;stroke:black;stroke-width:40.74px;"/>
        </g>
        <g transform="matrix(1.1918,0,0,1.1918,-339.798,-339.798)">
            <path d="M2702.47,893.309L1354.52,2650" style="fill:none;stroke:black;stroke-width:40.74px;"/>
        </g>
    </g>
</svg>
